<svg width="41" height="42" viewBox="0 0 41 42" fill="none" xmlns="http://www.w3.org/2000/svg">
  <rect x="3.02538" y="3.74805" width="34.875" height="34.875" rx="17.4375" stroke="#E8E8F6"/>
  <path d="M25.9766 16.6225C25.9766 17.2296 25.4844 17.7218 24.8773 17.7218C24.2702 17.7218 23.778 17.2296 23.778 16.6225C23.778 16.0154 24.2702 15.5233 24.8773 15.5233C25.4844 15.5233 25.9766 16.0154 25.9766 16.6225Z" fill="#666680"/>
  <path fill-rule="evenodd" clip-rule="evenodd" d="M20.8466 24.3175C22.8703 24.3175 24.5109 22.6769 24.5109 20.6532C24.5109 18.6295 22.8703 16.989 20.8466 16.989C18.8229 16.989 17.1824 18.6295 17.1824 20.6532C17.1824 22.6769 18.8229 24.3175 20.8466 24.3175ZM20.8466 22.8518C22.0609 22.8518 23.0452 21.8674 23.0452 20.6532C23.0452 19.439 22.0609 18.4547 20.8466 18.4547C19.6324 18.4547 18.6481 19.439 18.6481 20.6532C18.6481 21.8674 19.6324 22.8518 20.8466 22.8518Z" fill="#666680"/>
  <path fill-rule="evenodd" clip-rule="evenodd" d="M13.5181 20.3601C13.5181 17.8975 13.5181 16.6662 13.9974 15.7256C14.4189 14.8982 15.0916 14.2255 15.919 13.804C16.8596 13.3247 18.0909 13.3247 20.5535 13.3247H21.1398C23.6024 13.3247 24.8337 13.3247 25.7743 13.804C26.6016 14.2255 27.2743 14.8982 27.6959 15.7256C28.1751 16.6662 28.1751 17.8975 28.1751 20.3601V20.9464C28.1751 23.409 28.1751 24.6403 27.6959 25.5809C27.2743 26.4082 26.6016 27.0809 25.7743 27.5025C24.8337 27.9817 23.6024 27.9817 21.1398 27.9817H20.5535C18.0909 27.9817 16.8596 27.9817 15.919 27.5025C15.0916 27.0809 14.4189 26.4082 13.9974 25.5809C13.5181 24.6403 13.5181 23.409 13.5181 20.9464V20.3601ZM20.5535 14.7904H21.1398C22.3953 14.7904 23.2487 14.7915 23.9084 14.8454C24.551 14.8979 24.8796 14.9931 25.1089 15.1099C25.6604 15.391 26.1089 15.8394 26.3899 16.391C26.5067 16.6202 26.6019 16.9488 26.6544 17.5914C26.7083 18.2511 26.7094 19.1046 26.7094 20.3601V20.9464C26.7094 22.2018 26.7083 23.0553 26.6544 23.715C26.6019 24.3576 26.5067 24.6862 26.3899 24.9154C26.1089 25.467 25.6604 25.9155 25.1089 26.1965C24.8796 26.3133 24.551 26.4085 23.9084 26.461C23.2487 26.5149 22.3953 26.516 21.1398 26.516H20.5535C19.298 26.516 18.4445 26.5149 17.7848 26.461C17.1423 26.4085 16.8136 26.3133 16.5844 26.1965C16.0328 25.9155 15.5844 25.467 15.3033 24.9154C15.1865 24.6862 15.0914 24.3576 15.0389 23.715C14.985 23.0553 14.9838 22.2018 14.9838 20.9464V20.3601C14.9838 19.1046 14.985 18.2511 15.0389 17.5914C15.0914 16.9488 15.1865 16.6202 15.3033 16.391C15.5844 15.8394 16.0328 15.391 16.5844 15.1099C16.8136 14.9931 17.1423 14.8979 17.7848 14.8454C18.4445 14.7915 19.298 14.7904 20.5535 14.7904Z" fill="#666680"/>
</svg>