<svg width="21" height="20" viewBox="0 0 21 20" fill="none" xmlns="http://www.w3.org/2000/svg">
<g clip-path="url(#clip0_162_244)">
<path fill-rule="evenodd" clip-rule="evenodd" d="M12.3923 2H8.60767C7.10268 1.99999 5.91025 1.99998 4.96176 2.10139C3.98916 2.20537 3.18189 2.42327 2.48895 2.92107C2.08715 3.20973 1.73294 3.55727 1.43874 3.95152C0.93139 4.6314 0.709308 5.42348 0.603331 6.37778C0.499982 7.30841 0.49999 8.47838 0.5 9.95504V10.0449C0.49999 11.5216 0.499982 12.6916 0.603331 13.6222C0.709308 14.5765 0.93139 15.3686 1.43874 16.0485C1.73294 16.4427 2.08715 16.7903 2.48895 17.0789C3.18189 17.5767 3.98916 17.7946 4.96176 17.8986C5.91025 18 7.10266 18 8.60765 18H12.3923C13.8973 18 15.0897 18 16.0382 17.8986C17.0108 17.7946 17.8181 17.5767 18.511 17.0789C18.9129 16.7903 19.2671 16.4427 19.5613 16.0485C20.0686 15.3686 20.2907 14.5765 20.3967 13.6222C20.5 12.6916 20.5 11.5217 20.5 10.045V9.95505C20.5 8.47843 20.5 7.3084 20.3967 6.37778C20.2907 5.42348 20.0686 4.6314 19.5613 3.95152C19.2671 3.55727 18.9129 3.20973 18.511 2.92107C17.8181 2.42327 17.0108 2.20537 16.0382 2.10139C15.0897 1.99998 13.8973 1.99999 12.3923 2ZM3.39564 4.13609C3.78238 3.85825 4.28687 3.68834 5.12801 3.59841C5.98367 3.50693 7.09244 3.50588 8.65348 3.50588H12.3465C13.9076 3.50588 15.0163 3.50693 15.872 3.59841C16.7131 3.68834 17.2176 3.85825 17.6044 4.13609C17.8793 4.33359 18.1216 4.57138 18.3229 4.84113C18.5044 5.08425 18.6406 5.37479 18.7392 5.76925L13.2937 9.14377C12.4835 9.64586 11.9251 9.99077 11.4601 10.2161C11.0113 10.4336 10.7098 10.5085 10.4253 10.5085C10.1407 10.5085 9.83924 10.4336 9.39045 10.2161C8.92546 9.99077 8.36706 9.64586 7.55683 9.14377L2.24146 5.84989C2.34133 5.41391 2.4835 5.10053 2.67707 4.84113C2.87836 4.57138 3.12071 4.33359 3.39564 4.13609ZM2.06125 7.51929C2.03522 8.19412 2.03477 9.00306 2.03477 10C2.03477 11.5317 2.03584 12.6196 2.12907 13.4591C2.22073 14.2844 2.3939 14.7794 2.67707 15.1589C2.87836 15.4286 3.12071 15.6664 3.39564 15.8639C3.78238 16.1417 4.28687 16.3117 5.12801 16.4016C5.98367 16.4931 7.09244 16.4941 8.65348 16.4941H12.3465C13.9076 16.4941 15.0163 16.4931 15.872 16.4016C16.7131 16.3117 17.2176 16.1417 17.6044 15.8639C17.8793 15.6664 18.1216 15.4286 18.3229 15.1589C18.6061 14.7794 18.7793 14.2844 18.8709 13.4591C18.9642 12.6196 18.9652 11.5317 18.9652 10C18.9652 8.95818 18.9647 8.12166 18.9351 7.42896L14.0788 10.4384C13.3114 10.9139 12.6854 11.3019 12.1398 11.5663C11.5698 11.8425 11.0289 12.0144 10.4253 12.0144C9.82165 12.0144 9.28072 11.8425 8.71078 11.5663C8.1652 11.3019 7.53916 10.9139 6.7718 10.4384L2.06125 7.51929Z" fill="#180005"/>
</g>
<defs>
<clipPath id="clip0_162_244">
<rect width="20" height="20" fill="white" transform="translate(0.5)"/>
</clipPath>
</defs>
</svg>
