<svg width="21" height="20" viewBox="0 0 21 20" fill="none" xmlns="http://www.w3.org/2000/svg">
<path fill-rule="evenodd" clip-rule="evenodd" d="M7.32119 1.32705C6.4973 0.885147 5.50139 0.891543 4.67269 1.34331C4.31232 1.53977 3.99079 1.8617 3.57493 2.27807L3.42338 2.42967C2.78876 3.06405 2.36893 3.48372 2.06819 4.01019C1.41097 5.16071 1.31422 6.75085 1.82853 7.95865C2.06379 8.51113 2.39467 8.92431 2.89021 9.54308L2.95826 9.62808C3.97196 10.8944 5.24806 12.4884 6.68449 13.9249C8.0292 15.2696 9.41751 16.3792 10.6268 17.3457L10.9569 17.6098C11.5757 18.1053 11.9889 18.4362 12.5413 18.6715C13.7492 19.1858 15.3393 19.089 16.4898 18.4318C17.0163 18.1311 17.4359 17.7113 18.0703 17.0767L18.2219 16.9251C18.6383 16.5092 18.9602 16.1877 19.1567 15.8273C19.6085 14.9986 19.6149 14.0027 19.1729 13.1788C18.9808 12.8206 18.6626 12.5028 18.2516 12.0923L17.259 11.0998C17.2171 11.0578 17.1832 11.024 17.1501 10.9931C16.3541 10.2514 15.1733 10.0936 14.1963 10.5971C14.1556 10.6181 14.1128 10.6421 14.0602 10.6715L14.0507 10.6769C13.9648 10.7249 13.9364 10.7408 13.9112 10.7538C13.2469 11.0994 12.4509 11.0497 11.8448 10.6257C11.8219 10.6097 11.796 10.5905 11.7181 10.5322L11.5884 10.4353C11.4651 10.3432 11.4118 10.3033 11.36 10.2629C10.9411 9.93602 10.564 9.55896 10.2371 9.13999C10.1967 9.08824 10.1568 9.03492 10.0647 8.91157L9.96778 8.78191C9.90953 8.70396 9.89035 8.67815 9.87431 8.65522C9.45035 8.04913 9.40061 7.25306 9.74617 6.5888C9.75925 6.56366 9.77509 6.5352 9.82315 6.44935L9.82893 6.43903C9.85829 6.38659 9.88195 6.34435 9.90291 6.30366C10.4065 5.32672 10.2487 4.14587 9.50691 3.3499C9.47602 3.31676 9.44156 3.28231 9.39957 3.24032L8.40777 2.24846C7.99724 1.8374 7.67945 1.51921 7.32119 1.32705ZM5.38819 2.67529C5.76522 2.46975 6.21767 2.46716 6.59144 2.66763C6.65819 2.70344 6.73057 2.75654 6.85312 2.86805C6.9758 2.97969 7.14554 3.14682 7.40716 3.40844L8.3116 4.31288C8.36583 4.36711 8.37954 4.38099 8.39008 4.39229C8.69773 4.72243 8.76384 5.213 8.55419 5.61975C8.54701 5.63368 8.53744 5.651 8.49955 5.71868L8.49373 5.72908C8.45374 5.80049 8.42553 5.85088 8.40013 5.89971C7.79278 7.06719 7.87951 8.4679 8.62623 9.53539C8.65742 9.57997 8.69157 9.62568 8.73991 9.69035L8.8495 9.83701C8.93478 9.95114 8.98433 10.0174 9.03537 10.0829C9.4376 10.5984 9.9016 11.0624 10.4172 11.4646C10.4825 11.5156 10.5492 11.5655 10.6632 11.6507L10.8088 11.7594L10.8096 11.76C10.8743 11.8084 10.92 11.8426 10.9646 11.8738C12.0321 12.6205 13.4328 12.7072 14.6003 12.0999C14.6491 12.0745 14.7003 12.0458 14.7717 12.0059L14.7813 12.0005C14.849 11.9626 14.8663 11.953 14.8802 11.9458C15.287 11.7362 15.7776 11.8023 16.1077 12.1099C16.119 12.1205 16.1329 12.1342 16.1871 12.1884L17.0916 13.0929C17.3532 13.3545 17.5203 13.5242 17.6319 13.6469C17.7435 13.7694 17.7966 13.8418 17.8324 13.9086C18.0328 14.2823 18.0302 14.7348 17.8247 15.1118C17.7879 15.1793 17.7338 15.2525 17.6207 15.3765C17.5075 15.5006 17.3382 15.6725 17.0733 15.9374C16.3438 16.6669 16.0732 16.9287 15.7476 17.1148C15.0116 17.5352 13.9213 17.6012 13.1498 17.2727C12.8063 17.1264 12.552 16.93 11.8521 16.3697C10.6101 15.3754 9.15967 14.1302 7.76475 12.7353C6.36983 11.3403 5.12457 9.88992 4.13034 8.64796C3.57 7.94801 3.37359 7.69371 3.22731 7.35017C2.89878 6.57866 2.96483 5.4884 3.38523 4.75245C3.57125 4.4268 3.83312 4.15624 4.56264 3.42672C4.82752 3.16184 4.99939 2.99253 5.12352 2.87932C5.24753 2.76622 5.32075 2.71206 5.38819 2.67529Z" fill="#180005"/>
</svg>
