<svg width="428" height="406" fill="none" xmlns="http://www.w3.org/2000/svg"><g clip-path="url(#a)"><path d="M66.842 222.903H35v10.152h31.842v-10.152Zm223.482-81.642h-31.842v10.152h31.842v-10.152ZM49.082 245.856c-5.307.09-18.683.317-23.81.381h-8.44v-.418l-.045-10.106v-.454h.453l15.92.064c3.968 0 11.955.118 15.922.181h.217v.209l-.217 10.152v-.009Zm0 0-.217-10.143.217.218c-3.976.054-11.954.145-15.921.172l-15.921.054.453-.444v10.152l-.417-.408h7.888c5.045.054 18.729.281 23.954.372l-.036.027Zm151.404 67.362c-5.298.091-18.674.317-23.809.372l-8.024.045h-.417v-11.023h.462l15.912.064c3.967 0 11.964.118 15.921.172h.227v.209l-.218 10.152-.054.009Zm0 0-.208-10.152.208.218c-3.967.054-11.945.136-15.921.172l-15.912.064.453-.454-.046 10.152-.407-.417h7.888c5.044.054 18.728.281 23.945.371v.046Zm-17.76 12.801c-5.307.091-18.683.318-23.809.372l-8.033.045h-.407v-.417l-.045-10.152v-.453h.452l15.921.063c3.967 0 11.955.118 15.921.172h.218v.209l-.218 10.152v.009Zm0 0-.208-10.152.218.218-7.961.1c-5.044.072-18.656.118-23.881.136l.452-.454v10.152l-.416-.417 7.888.045c5.053.055 18.737.281 23.954.372h-.046Zm-17.687-22.953h-31.842v10.152h31.842v-10.152Zm226.854-67.362h-31.842v10.152h31.842v-10.152ZM374.121 24.023h-31.842v10.152h31.842V24.023Zm17.761 22.952c-5.307.09-18.683.317-23.809.372h-8.44V36.333h.389l15.912.064c3.967 0 11.964.117 15.921.172h.218v.218l-.218 10.151.027.037Zm0 0-.163-10.152.209.209c-3.967.063-11.946.145-15.921.181l-15.985.063.444-.453v10.152l-.408-.418h7.889c5.044.064 18.728.29 23.944.381l-.009.037ZM66.842 34.156c-5.307.091-18.684.318-23.81.372h-8.44v-.372l-.045-10.152v-.453H35l15.92.063c3.967 0 11.955.118 15.922.173h.217v.217l-.217 10.152Zm0 0-.245-10.133.218.208c-3.976.064-11.946.145-15.921.182l-15.922.063.453-.453v10.151l-.416-.417h7.888c5.053.064 18.737.29 23.954.381l-.01.018Z" fill="#EBEBEB"/><path d="M21.117 361.819c117.533-.554 249.366-.563 366.89 0-117.524.562-249.366.553-366.89 0Z" fill="#263238"/><path d="M204.563 398.298c42.249 0 76.499-6.17 76.499-13.781 0-7.611-34.25-13.781-76.499-13.781-42.249 0-76.499 6.17-76.499 13.781 0 7.611 34.25 13.781 76.499 13.781Z" fill="#455A64"/><path opacity=".1" d="M281.062 384.499c0 1.724-1.748 3.366-4.954 4.89-55.868-9.979-89.612-2.876-112.941 6.705-21.12-2.459-35.103-6.732-35.103-11.595 0-7.602 34.251-13.771 76.499-13.771s76.499 6.187 76.499 13.771Z" fill="#000"/><path d="M125.363 384.499c.553-5.516 12.933-8.165 17.479-9.408 33.744-7.258 68.828-6.958 103.034-3.429 50.634 5.779 50.788 19.877 0 25.929-34.224 3.483-69.308 3.529-103.061-3.675-4.673-1.252-16.872-3.892-17.452-9.417Zm.091 0c.543 5.371 12.968 8.038 17.451 9.172 13.467 2.922 27.26 4.083 40.998 4.727a407.614 407.614 0 0 0 61.9-1.66c49.982-5.616 50.154-18.852 0-24.731a410.564 410.564 0 0 0-82.53.109 186.7 186.7 0 0 0-20.404 3.202c-4.6 1.161-16.863 3.81-17.442 9.181h.027Z" fill="#455A64"/><path d="M286.103 384.499c-.534 6.033-12.733 9-17.651 10.47-34.812 8.255-71.309 7.892-106.692 3.892-51.766-6.496-51.911-22.218 0-29.032a349.117 349.117 0 0 1 85.645.145 173.142 173.142 0 0 1 21.074 4.001c5.045 1.506 17.081 4.428 17.651 10.479l-.027.045Zm-.091 0c-.561-5.924-12.742-8.873-17.623-10.233-13.893-3.357-28.183-4.682-42.42-5.444a382.577 382.577 0 0 0-64.137 1.896c-51.132 6.351-51.295 21.202 0 27.798a384.339 384.339 0 0 0 85.501-.109 174.45 174.45 0 0 0 21.083-3.674c4.981-1.379 17.053-4.337 17.624-10.243l-.028.009Z" fill="#455A64"/><path d="M286.059 384.499c-.444-17.99-.453-37.777 0-55.767.453 17.99.444 37.777 0 55.767ZM227.8 369.231a1167.61 1167.61 0 0 1 0-55.768 1146.95 1146.95 0 0 1 0 55.768Zm-104.736 15.268c-.435-29.566-.444-62.744 0-92.311.453 29.567.444 62.745 0 92.311Zm155.553-5.952c-.443-22.236-.452-47.176 0-69.421.444 22.236.435 47.176 0 69.421Zm-114.148-13.191a628.077 628.077 0 0 1 0-41.106 615.728 615.728 0 0 1 0 41.106Zm85.331 6.442a982.96 982.96 0 0 1 0-51.168 965.57 965.57 0 0 1 0 51.168Zm-111.022 4.917a1808.735 1808.735 0 0 1 0-69.412c.444 22.236.444 47.176 0 69.412Zm147.281-74.22c.462 6.899.462 13.821 0 20.721-.462-6.9-.462-13.822 0-20.721Zm-135.42 42.15a154.93 154.93 0 0 1 0 20.712 154.93 154.93 0 0 1 0-20.712Zm117.433-11.513a154.93 154.93 0 0 1 0 20.712 153.604 153.604 0 0 1 0-20.712Zm-89.864 14.062c.466 6.896.466 13.816 0 20.712a154.93 154.93 0 0 1 0-20.712Zm63.26-1.506c.466 6.897.466 13.816 0 20.713a154.945 154.945 0 0 1 0-20.713Z" fill="#455A64"/><path d="M235.949 394.714c2.165-.272 18.847-2.458 10.134-5.334-4.736-1.561-11.99-1.987-16.989-2.549 5.751.317 11.565.435 17.125 2.113 1.159.363 3.958 1.506 2.355 2.985a10.542 10.542 0 0 1-4.066 1.615c-2.82.601-5.681.993-8.559 1.17Zm-15.81.735c4.012-.309 7.996-.436 12.017-.408a53.272 53.272 0 0 1-12.017.408Zm-21.827-1.542c2.704.147 5.394.48 8.052.998a25.694 25.694 0 0 1-8.052-.998Zm21.826-7.294c-4.936.182-9.88.39-14.798.862a95.187 95.187 0 0 0-7.345.907c-2.074.427-4.329.69-6.122 1.878a1.088 1.088 0 0 0-.471.762 1.112 1.112 0 0 1 .435-.798c1.739-1.334 4.012-1.697 6.095-2.186 2.436-.481 4.899-.781 7.363-1.026 4.935-.439 9.892-.576 14.843-.408v.009Z" fill="#fff"/><path d="M231.541 393.181c1.377-.199 13.585-1.542 7.155-3.057-3.876-.962-8.151-1.098-12.091-1.542 4.529.199 9.328 0 13.685 1.614 3.622 2.35-7.59 2.976-8.749 2.985Zm-11.402.39a41.291 41.291 0 0 1 8.658-.236 39.984 39.984 0 0 1-8.658.236Zm-15.713-.861a18.332 18.332 0 0 1 5.796.589 18.626 18.626 0 0 1-5.796-.589Zm15.713-4.256c-3.514.327-7.046.273-10.551.636-2.771.317-7.172.317-9.726 1.469a.745.745 0 0 0-.417.472.728.728 0 0 1 .381-.526c2.97-1.542 6.475-1.452 9.726-1.869 3.524-.237 7.057-.298 10.587-.182Z" fill="#fff"/><path d="M263.228 233.817s10.143 17.691 16.981 27.471c6.837 9.78 14.345 31.127 15.794 33.196 1.449 2.068 3.985 104.767 3.985 104.767s-16.6 2.068-20.087 2.259c-3.487.19-20.042 4.481-20.042 4.481l33.509-2.721-13.367 2.721s22.296-.97 23.374-1.061c1.078-.091 8.93.408 9.31.127.38-.281 1.558-2.014 1.213-2.722-.344-.707-6.629-3.356-6.629-3.356s2.092-100.349 1.947-102.1c-.145-1.751 1.812-4.391.698-6.151-1.114-1.76-4.836-3.384-5.389-4.645-.552-1.261-5.787-34.747-6.339-49.807-.209-6.677-31.571-11.803-34.958-2.459Z" fill="#FFC727"/><path opacity=".7" d="M263.228 233.817s10.143 17.691 16.981 27.471c6.837 9.78 14.345 31.127 15.794 33.196 1.449 2.068 3.985 104.767 3.985 104.767s-16.6 2.068-20.087 2.259c-3.487.19-20.042 4.481-20.042 4.481l33.509-2.721-13.367 2.721s22.296-.97 23.374-1.061c1.078-.091 8.93.408 9.31.127.38-.281 1.558-2.014 1.213-2.722-.344-.707-6.629-3.356-6.629-3.356s2.092-100.349 1.947-102.1c-.145-1.751 1.812-4.391.698-6.151-1.114-1.76-4.836-3.384-5.389-4.645-.552-1.261-5.787-34.747-6.339-49.807-.209-6.677-31.571-11.803-34.958-2.459Z" fill="#fff"/><path d="m300.385 258.82-33.047-17.981c-2.436-4.11-4.111-7.022-4.111-7.022 3.387-9.345 34.749-4.219 34.993 2.449.218 5.798 1.123 14.226 2.165 22.554Z" fill="#FFC727"/><path d="M304.643 314.389s1.675.19 4.338.426v-.426h-4.338Zm-13.051-30.102c.145.335.29.671.426 1.007a49.633 49.633 0 0 0 7.87-1.007h-8.296Zm7.753-34.421v-.145h-4.71s.734.091 2.011.209l2.717.254c-.018-.109-.018-.209-.018-.318Zm-16.157 16.258c.082.163.172.327.263.49.905-.136 1.811-.3 2.662-.49h-2.925Zm18.113-.49h-2.409s.905.109 2.436.254l-.027-.254Zm1.032 7.258h-9.328s3.985.463 9.464.816c-.063-.299-.1-.571-.145-.798l.009-.018Zm-22.278-11.794.154.218.299.435.298.445a55.21 55.21 0 0 0 9.962-1.098h-10.713Zm21.608 65.057s2.808.254 7.1.527v-.527h-7.1Zm1.304 32.942c1.706.396 3.433.698 5.171.907v-.907h-5.171ZM284.148 256.97s5.841 2.631 8.794 0h-8.794Zm15.758 72.66s5.832 2.631 8.785 0h-8.785Zm-3.206-28.378c0 .381.055.771.073 1.17a15.97 15.97 0 0 0 6.547-1.17h-6.62Zm.272 4.863v.235l1.712-.272-1.712.037Zm2.717 81.532v.445a61.528 61.528 0 0 0 3.07-.445h-3.07Zm3.486-39.809s1.975.173 5.163.39v-.39h-5.163Zm-3.731 30.51v.581a67.698 67.698 0 0 0 4.275-.581h-4.275Zm-.19-6.604v.907a72.193 72.193 0 0 0 8.087-.907h-8.087Z" fill="#FFC727"/><path d="M283.949 233.817s15.459 19.26 22.297 29.031c6.837 9.771 22.016 29.549 23.465 31.617 1.449 2.069 23.392 104.767 23.392 104.767s-16.609 2.069-20.087 2.259c-3.477.191-20.087 4.5-20.087 4.5l33.509-2.722-13.358 2.722s22.296-.971 23.365-1.061c1.069-.091 8.939.408 9.319.127.38-.282 1.558-2.014 1.205-2.722-.354-.708-6.621-3.357-6.621-3.357s-17.261-100.358-17.397-102.109c-.136-1.751 1.811-4.391.688-6.151-1.123-1.76-4.827-3.384-5.379-4.645-.552-1.261-18.774-34.747-19.326-49.807-.245-6.668-31.607-11.794-34.985-2.449Z" fill="#FFC727"/><path opacity=".7" d="M283.949 233.817s15.459 19.26 22.297 29.031c6.837 9.771 22.016 29.549 23.465 31.617 1.449 2.069 23.392 104.767 23.392 104.767s-16.609 2.069-20.087 2.259c-3.477.191-20.087 4.5-20.087 4.5l33.509-2.722-13.358 2.722s22.296-.971 23.365-1.061c1.069-.091 8.939.408 9.319.127.38-.282 1.558-2.014 1.205-2.722-.354-.708-6.621-3.357-6.621-3.357s-17.261-100.358-17.397-102.109c-.136-1.751 1.811-4.391.688-6.151-1.123-1.76-4.827-3.384-5.379-4.645-.552-1.261-18.774-34.747-19.326-49.807-.245-6.668-31.607-11.794-34.985-2.449Z" fill="#fff"/><path d="M345.875 314.389h-2.98s1.132.127 3.025.299c-.009-.1-.027-.199-.045-.299Zm-23.846-30.102c.23.29.447.593.653.907a43.115 43.115 0 0 0 6.022-.907h-6.675Zm-.389-35.491a.116.116 0 0 1 0-.064l-.081-.235h-4.683s1.35.154 3.569.363l1.268.108a.724.724 0 0 1-.073-.172Zm-14.227 15.74c.181.264.38.545.588.817l.109.154a49 49 0 0 0 7.308-.971h-8.005Zm25.973 12.003h-3.804s1.531.182 4.003.39a2.187 2.187 0 0 0-.199-.39Zm-28.428-15.423c.272.372.535.735.779 1.089a54.686 54.686 0 0 0 9.681-1.089h-10.46Zm43.009 65.584c-.118-.182-.254-.345-.39-.526h-7.661s3.215.29 8.069.589c0 0 .009-.09-.018-.109v.046Zm7.571 44.082h-4.401s1.693.145 4.464.345c-.018-.154-.036-.236-.063-.39v.045Zm3.478 20.159c0-.163-.064-.336-.091-.508h-6.05c2.051.466 4.129.8 6.222.998l-.081-.49Zm-2.654-15.423h-7.055c2.385.535 4.807.893 7.245 1.07-.072-.381-.154-.734-.154-1.097l-.036.027Zm-32.811-121.279a12.366 12.366 0 0 1-.199-.535h-11.828a41.675 41.675 0 0 0 9.962 1.143l.797-.045c.471 0 .906-.073 1.395-.136l-.127-.427Zm14.608 75.391s5.841 2.631 8.793 0h-8.793Zm-45.753-85.107.906 1.143c1.861.101 3.728-.02 5.56-.363a9.807 9.807 0 0 0 1.341-.345 8.521 8.521 0 0 0 1.114-.426l-8.921-.009Zm39.115 56.729c.063.263.126.526.199.798l.054.236c3.306.282 7.173.218 9.799-1.034h-10.052Zm1.15 4.863c0 .181.09.381.136.571a59.705 59.705 0 0 0 4.156-.571h-4.292Zm18.927 41.732h-10.161l.544.046c1.34.109 4.971.408 9.717.662-.018-.245-.063-.481-.1-.717v.009Zm-8.83 3.629.082.363a51.017 51.017 0 0 0 2.336-.363h-2.418Zm7.581 34.992.163.762c2.227-.181 4.301-.426 6.158-.762h-6.321Zm-6.177-28.541c.064.272.118.544.181.816 2.491-.19 4.809-.453 6.865-.816h-7.046Zm-110.729-69.431c0 7.04-.054 13.693-.163 19.959-.416 24.985-1.585 44.073-2.789 57.8-1.268 14.407-2.59 22.916-3.134 26.128-3.577.2-7.245.354-11.048.454.624-3.003 2.472-12.429 4.129-27.09a499.9 499.9 0 0 0 2.98-54.733c0-3.938-.042-7.984-.127-12.139a540.59 540.59 0 0 0-.299-10.107v-.236l10.451-.036Z" fill="#FFC727"/><path opacity=".7" d="M233.443 288.496c0 7.04-.054 13.693-.163 19.959-.416 24.985-1.585 44.073-2.789 57.8-1.268 14.407-2.59 22.916-3.134 26.128-3.577.2-7.245.354-11.048.454.624-3.003 2.472-12.429 4.129-27.09a499.9 499.9 0 0 0 2.98-54.733c0-3.938-.042-7.984-.127-12.139a540.59 540.59 0 0 0-.299-10.107v-.236l10.451-.036Z" fill="#fff"/><path d="M217.575 373.613a7.508 7.508 0 0 0 2.617-2.468 8.37 8.37 0 0 0 .77-1.633c.167-.594.282-1.201.344-1.815 0-.09-.127-.099-.145 0a8.173 8.173 0 0 1-.616 1.643 9.994 9.994 0 0 1-.851 1.496 11.614 11.614 0 0 1-2.273 2.523.144.144 0 0 0-.067.091.153.153 0 0 0 .017.113.152.152 0 0 0 .092.067.152.152 0 0 0 .112-.017Z" fill="#FFC727"/><path d="M221.198 364.032a4.477 4.477 0 0 0 1.983-1.815c.235-.385.417-.8.544-1.234.155-.41.223-.849.199-1.288 0-.072-.109-.063-.136 0-.172.372-.28.78-.462 1.152a7.003 7.003 0 0 1-.643 1.071c-.235.326-.48.644-.742.952-.263.309-.607.599-.906.908a.16.16 0 0 0-.003.181.16.16 0 0 0 .166.073Z" fill="#fff"/><path d="M229.487 364.096a4.675 4.675 0 0 0 2.037 2.005.23.23 0 0 0 .276-.085.229.229 0 0 0-.031-.287c-.616-.654-1.268-1.252-1.811-1.96a7.395 7.395 0 0 1-1.223-2.395c0-.073-.154-.045-.136 0 .128.954.429 1.876.888 2.722Z" fill="#FFC727"/><path d="M227.194 356.701c.076.4.179.794.308 1.18a2.789 2.789 0 0 0 1.15 1.751c.299.163.489-.282.218-.454a1.81 1.81 0 0 1-.553-.708c-.154-.299-.29-.617-.416-.907-.127-.29-.272-.68-.381-1.025-.108-.345-.199-.717-.335-1.061a.075.075 0 0 0-.026-.035.08.08 0 0 0-.042-.013.074.074 0 0 0-.068.048 4.68 4.68 0 0 0 .145 1.224Z" fill="#fff"/><path d="M233.469 355.468c.254.082.335-.299.136-.417a8.063 8.063 0 0 1-3.912-4.709c0-.072-.145-.045-.136 0a5.993 5.993 0 0 0 3.912 5.126Z" fill="#FFC727"/><path d="M230.689 349.833c.172.182.48-.09.326-.29a5.445 5.445 0 0 1-1.349-3.837c0-.091-.127-.118-.136 0a4.86 4.86 0 0 0 1.159 4.127Z" fill="#fff"/><path d="M220.626 353.318a5.188 5.188 0 0 0 2.336-1.697 7.5 7.5 0 0 0 1.359-2.595.069.069 0 0 0-.005-.024.06.06 0 0 0-.034-.034.069.069 0 0 0-.024-.005.07.07 0 0 0-.025.005.06.06 0 0 0-.034.034.069.069 0 0 0-.005.024 7.061 7.061 0 0 1-1.539 2.332c-.308.319-.631.622-.969.907-.372.3-.788.535-1.178.817-.136.027-.072.299.118.236Zm.837 2.15a7.384 7.384 0 0 0 1.15-1.161c.328-.433.631-.884.906-1.352a.072.072 0 0 0 .004-.05.072.072 0 0 0-.028-.042.078.078 0 0 0-.049-.012.077.077 0 0 0-.045.022c-.63.871-1.35 1.674-2.147 2.395-.126.136.064.327.209.2Zm-1.45-12.701a7.381 7.381 0 0 0 2.409-2.495 15.4 15.4 0 0 0 1.34-3.547c0-.073-.109-.118-.136-.046a17.877 17.877 0 0 1-1.567 3.257 12.272 12.272 0 0 1-2.218 2.577.149.149 0 0 0-.054.097.148.148 0 0 0 .025.108.156.156 0 0 0 .201.049Zm.54 2.803a6.538 6.538 0 0 0 1.693-1.941 9.115 9.115 0 0 0 .906-2.405c0-.09-.118-.108-.145 0a9.327 9.327 0 0 1-1.159 2.205 13.88 13.88 0 0 1-1.531 1.896.189.189 0 0 0 .132.247c.034.009.07.008.104-.002Z" fill="#FFC727"/><path d="M227.801 344.027c.09.109.326 0 .244-.127a9.785 9.785 0 0 1-1.313-5.253c0-.09-.127-.118-.136 0-.154 1.833-.018 3.883 1.205 5.38Z" fill="#fff"/><path d="M232.637 336.851c.035.032.08.049.127.049a.192.192 0 0 0 .189-.171.189.189 0 0 0-.036-.132 39.355 39.355 0 0 1-2.218-3.511 17.842 17.842 0 0 1-1.495-3.919.068.068 0 0 0-.026-.034.07.07 0 0 0-.042-.013.069.069 0 0 0-.041.013.076.076 0 0 0-.027.034 11.237 11.237 0 0 0 3.569 7.684Z" fill="#FFC727"/><path d="M230.352 338.231c.145.099.389-.073.254-.227a6.6 6.6 0 0 1-1.006-1.343 3.836 3.836 0 0 1-.452-1.633.07.07 0 0 0-.022-.051.07.07 0 0 0-.051-.021.07.07 0 0 0-.051.021.07.07 0 0 0-.021.051 3.938 3.938 0 0 0 1.349 3.203Z" fill="#fff"/><path d="M224.176 331.335a10.536 10.536 0 0 0 2.717-7.584.07.07 0 0 0-.027-.034.067.067 0 0 0-.041-.013.072.072 0 0 0-.068.047 21.821 21.821 0 0 1-2.717 7.503c-.054.081.081.154.136.081Z" fill="#FFC727"/><path d="M226.325 332.678c.15-.267.268-.55.354-.843.1-.28.173-.569.217-.862.036-.283.055-.568.054-.853v-.427a3.799 3.799 0 0 1 0-.544c0-.109-.154-.1-.136 0 .023.157.023.315 0 .472a3.398 3.398 0 0 1-.054.426c0 .291-.09.572-.145.853-.054.281-.145.563-.217.844-.073.281-.136.562-.217.843-.082.282.081.2.144.091Z" fill="#fff"/><path d="M233.433 322.454a.178.178 0 0 0 .131.025.176.176 0 0 0 .134-.206.175.175 0 0 0-.074-.11 10.883 10.883 0 0 1-3.215-5.443.07.07 0 0 0-.022-.051.07.07 0 0 0-.102 0 .07.07 0 0 0-.021.051c.389 2.232.987 4.709 3.169 5.734Zm1.558-6.713c.163 0 .217-.273.063-.327a10.5 10.5 0 0 1-2.717-1.325 6.023 6.023 0 0 1-1.956-2.404.073.073 0 0 0-.039-.04.073.073 0 0 0-.056-.001.078.078 0 0 0-.04.04.077.077 0 0 0-.001.056c.662 1.996 2.518 3.937 4.746 4.001Zm-15.94 4.617a12.568 12.568 0 0 0 5.624-8.855.074.074 0 0 0-.068-.047.074.074 0 0 0-.041.013.065.065 0 0 0-.027.034 16.428 16.428 0 0 1-5.651 8.655.145.145 0 0 0-.021.081.138.138 0 0 0 .101.123.139.139 0 0 0 .083-.004Z" fill="#FFC727"/><path d="M221.278 323.007a5.828 5.828 0 0 0 2.526-2.132 7.772 7.772 0 0 0 1.368-3.012c0-.091-.118-.145-.154-.055a9.911 9.911 0 0 1-1.567 2.822c-.322.414-.68.799-1.069 1.152-.389.363-.824.699-1.213 1.071-.073.063.018.181.109.154Z" fill="#fff"/><path d="M222.159 327.108a5.277 5.277 0 0 0 1.404-3.094.07.07 0 0 0-.022-.051.07.07 0 0 0-.102 0 .07.07 0 0 0-.021.051 7.261 7.261 0 0 1-.58 1.551c-.27.492-.572.965-.905 1.416a.13.13 0 0 0-.012.098.128.128 0 0 0 .16.09.129.129 0 0 0 .078-.061Zm5.976-11.323a.132.132 0 0 0 .163.033.14.14 0 0 0 .062-.063.14.14 0 0 0 .01-.088 16.503 16.503 0 0 1-.661-2.059 8.1 8.1 0 0 1-.181-2.196c0-.072-.136-.081-.145 0a6.919 6.919 0 0 0 .752 4.373Zm5.867-9.262c.217.054.289-.254.117-.354a8.109 8.109 0 0 1-2.228-1.814 5.181 5.181 0 0 1-1.141-2.64.072.072 0 0 0-.072-.073.074.074 0 0 0-.073.073c.091 2.041 1.377 4.282 3.397 4.808Zm-12.792-1.243a12.83 12.83 0 0 0 3.93-5.207.072.072 0 0 0-.038-.083.067.067 0 0 0-.048-.006.071.071 0 0 0-.041.025 20.375 20.375 0 0 1-3.985 5.072c-.117.109.064.299.182.199Zm1.046 1.787a11.995 11.995 0 0 0 2.147-3.466.072.072 0 0 0-.005-.048.066.066 0 0 0-.033-.035.067.067 0 0 0-.048-.006.075.075 0 0 0-.041.026c-.661 1.17-1.485 2.24-2.228 3.356a.135.135 0 0 0 .027.18.136.136 0 0 0 .181-.007Zm13.36-8.482c.136 0 .244-.2.081-.254a6.658 6.658 0 0 1-4.193-3.321c0-.081-.172 0-.136.046.698 1.76 2.264 3.42 4.248 3.529Zm-2.801-3.657c.234.324.494.627.779.907.273.266.577.497.906.69.136.081.244-.136.109-.218a9.031 9.031 0 0 1-.906-.635 5.934 5.934 0 0 1-.806-.771c-.027-.118-.145-.046-.082.027Zm-11.064 4.219a5.531 5.531 0 0 0 2.346-3.021c0-.072-.109-.118-.136 0a5.812 5.812 0 0 1-2.319 2.903.102.102 0 0 0 .025.087c.011.011.024.02.038.025.015.006.031.008.046.006Zm8.693 78.684c.199.136.462-.136.29-.318a18.431 18.431 0 0 1-2.446-3.184 12.012 12.012 0 0 1-1.394-3.801c0-.073-.136-.073-.136 0 .136 2.748 1.349 5.733 3.686 7.303Z" fill="#FFC727"/><path d="M226.686 379.79a.146.146 0 0 0 .098.031.152.152 0 0 0 .096-.038.148.148 0 0 0 .05-.09.152.152 0 0 0-.018-.102 6.525 6.525 0 0 1-1.503-3.929.073.073 0 0 0-.145 0 5.232 5.232 0 0 0 1.422 4.128Z" fill="#fff"/><path d="M220.095 381.677a13.988 13.988 0 0 0 3.359-7.757c0-.081-.117-.108-.135 0a34.081 34.081 0 0 1-3.442 7.585c-.072.109.091.272.218.172Z" fill="#FFC727"/><path d="M220.699 385.47a7.245 7.245 0 0 0 1.059-1.905 8.513 8.513 0 0 0 .444-2.123c0-.1-.118-.1-.136 0a9.816 9.816 0 0 1-.634 2.023 12.44 12.44 0 0 1-.969 1.86.146.146 0 0 0 .236.145Z" fill="#fff"/><path d="M215.846 382.558a8.05 8.05 0 0 0 3.885-5.044.072.072 0 0 0 0-.056.078.078 0 0 0-.04-.04.073.073 0 0 0-.056.001.073.073 0 0 0-.039.04 10.161 10.161 0 0 1-1.631 2.722 15.421 15.421 0 0 1-2.291 2.132.167.167 0 0 0-.024.09.166.166 0 0 0 .103.147c.03.011.062.014.093.008Z" fill="#FFC727"/><path d="M216.47 393.299a6.35 6.35 0 0 0 2.074-2.377 9.479 9.479 0 0 0 1.023-2.994c0-.072-.108-.099-.136 0a11.865 11.865 0 0 1-1.286 2.804c-.534.907-1.222 1.605-1.811 2.422-.072.063.036.209.136.145Z" fill="#fff"/><path d="M228.135 391.322c.136.081.317-.091.19-.209a16.009 16.009 0 0 1-2.635-3.266 10.165 10.165 0 0 1-1.322-4.01c0-.072-.145-.072-.145 0 .072 2.867 1.367 5.988 3.912 7.485Zm-.925-4.736c.179.274.382.532.607.771.24.238.511.442.806.608.181.1.371-.154.19-.281a4.975 4.975 0 0 1-2.156-2.958.068.068 0 0 0-.026-.034.07.07 0 0 0-.042-.013.069.069 0 0 0-.041.013.076.076 0 0 0-.027.034 4.8 4.8 0 0 0 .689 1.86Z" fill="#FFC727"/><path d="M339.192 241.865c19.363 2.803 37.385-13.69 42.184-23.752 4.8-10.061 8.097-23.869 6.747-27.325-1.349-3.457-10.496 14.715-10.496 14.715s8.993-31.236 5.85-35.89c-3.142-4.654-18.438 29.73-18.438 29.73s6.81-24.368 3.541-24.867c-5.28-.808-15.568 30.011-15.568 30.011s3.034-12.801-.118-12.048c-5.017 1.197-20.811 48.401-13.702 49.426Z" fill="#263238"/><path d="M339.195 241.865c12.407 1.733 24.597-4.301 33.508-12.647a42.81 42.81 0 0 0 7.752-9.526 69.475 69.475 0 0 0 4.655-11.386 73.926 73.926 0 0 0 2.871-11.966 14.726 14.726 0 0 0 0-5.271c-.462-1.951-3.622 3.212-4.057 3.819-2.183 3.466-4.121 7.104-5.977 10.76l-.616-.236c1.349-5.153 9.183-33.232 5.434-35.808-.906.199-1.658 1.179-2.31 1.914a81.178 81.178 0 0 0-7.036 11.613c-2.817 5.37-5.434 10.886-7.952 16.384l-.788-.281c1.331-4.826 2.545-9.698 3.505-14.615.51-2.437.834-4.909.969-7.394 0-.781.054-1.815-.471-2.359-2.599-.372-5.85 6.686-6.982 8.782a191.498 191.498 0 0 0-8.459 20.866l-.362-.1c3.423-14.933-.082-15.967-5.986-1.923-2.337 4.917-13.902 37.478-7.653 39.347l-.045.027Zm0 0c-6.276-1.815 5.234-34.548 7.516-39.41 5.923-14.634 9.899-13.074 6.485 2.068l-.353-.1a192.303 192.303 0 0 1 8.277-21.038 45.996 45.996 0 0 1 3.758-6.578 6.86 6.86 0 0 1 2.935-2.603c3.704-1.135 1.286 8.754 1.086 10.56-.905 4.953-2.146 9.834-3.459 14.697l-.779-.281c2.491-5.562 5.108-11.06 7.924-16.467 2.618-4.645 4.864-9.752 8.839-13.436 6.131-3.81 1.476 16.249 1.024 18.608-1.286 5.96-2.826 11.848-4.528 17.709l-.607-.236c.905-1.479 9.545-19.116 11.085-14.434a14.8 14.8 0 0 1-.046 5.443 78.74 78.74 0 0 1-7.77 23.416c-8.468 13.427-25.131 24.295-41.414 22.055l.027.027Z" fill="#455A64"/><path d="M381.377 218.122a35.54 35.54 0 0 1-5.742 8.165c5.37-6.26 10.27-23.96 8.033-24.731-2.237-.771-9.962 12.248-9.962 12.248s2.536-16.149-.761-16.975c-3.296-.825-10.523 11.976-10.523 11.976s.362-12.865-1.811-12.629c-2.174.236-8.676 15.614-8.676 15.614s.172-9.172-1.812-9.073c-1.983.1-6.43 8.928-8.15 12.702 3.622-11.441 8.449-22.382 10.867-22.953 3.061-.735.281 11.376.127 12.011.344-1.016 10.379-30.764 15.559-29.938 3.179.49-3.206 23.651-3.532 24.831.616-1.352 15.341-34.257 18.429-29.694 3.089 4.563-5.614 35.065-5.841 35.872.254-.499 9.156-18.145 10.487-14.697 1.332 3.447-1.892 17.201-6.692 27.271Zm-158.379 67.172c-5.252 4.59-9.056 15.132-7.598 17.128 1.458 1.996 5.244-7.666 5.244-7.666s-4.166 21.066-.281 20.921c2.527-.1 4.872-11.259 4.872-11.259s.851 17.301 5.244 16.33c3.369-.753.905-16.412.905-16.412s3.279 8.909 5.805 7.875c2.527-1.034-2.526-14.252-2.526-14.252s2.526 5.062 3.93 3.892c1.404-1.171-1.748-13.446-5.18-16.548-3.432-3.103-10.415-.009-10.415-.009Z" fill="#EBEBEB"/><path d="M223.038 291.2c.136 3.629-.145 9.408 1.024 9.263 1.168-.146 1.929-9.263 1.929-9.263s.733 12.347 1.902 12.347c1.168 0 2.499-11.023 2.499-11.023s.471 7.793 1.811 7.494c1.341-.299 2.192-32.606 1.757-42.64-.543-12.792 8.622-15.876 22.56-15.141 13.937.734 59.853 3.229 72.45 3.084 12.597-.145 24.507-3.23 24.796-5.144.29-1.914-18.629-51.585-35.799-65.692-17.171-14.108-43.145-26.864-75.675-24.659-32.53 2.205-39.286 10.887-35.944 36.589 1.811 13.962 12.361 42.413 15.622 68.414 1.992 16.158.751 28.061 1.068 36.371Z" fill="#263238"/><path d="M263.527 173.269c-7.988 8.772-8.06 19.741 11.438 45.361 19.498 25.62 45.626 42.177 48.85 41.887 3.224-.29-6.34-10.143-6.34-10.143s19.843 18.907 22.623 17.609c2.78-1.297-9.056-20.576-9.056-20.576s7.96 9.073 9.627 7.639c1.666-1.433-8.151-19.097-8.151-19.097s4.528 7.203 6.457 6.351c2.826-1.325-2.608-34.076-14.427-53.527-11.818-19.451-54.274-22.917-61.021-15.504Z" fill="#263238"/><path d="M263.527 173.268c-6.231 6.469-5.996 14.679-2.599 22.509 3.124 7.448 7.752 14.134 12.525 20.612a170.732 170.732 0 0 0 34.042 34.076 95.244 95.244 0 0 0 13.467 8.736c1.521.69 4.474 2.214 2.644-.907a49.048 49.048 0 0 0-6.339-7.72l.471-.481c4.727 4.445 9.536 8.809 14.59 12.864a34.413 34.413 0 0 0 6.62 4.464c.444.199 1.014.272 1.05.127.134-.404.134-.84 0-1.243a34.38 34.38 0 0 0-3.033-7.385c-1.975-3.838-4.139-7.593-6.34-11.295l.697-.517a44.283 44.283 0 0 0 7.535 7.149c.408.263 1.114.662 1.485.49.254-1.016-.461-2.504-.796-3.557a145.426 145.426 0 0 0-7.381-15.087l.597-.354c.616 1.007 5.642 8.456 6.34 5.571a22.284 22.284 0 0 0 0-6.115 117.86 117.86 0 0 0-3.034-16.33c-2.78-10.687-6.412-21.347-12.217-30.791-3.061-4.609-7.616-8.048-12.48-10.633-9.835-5.099-20.983-7.485-32.014-7.775a48.673 48.673 0 0 0-8.286.526c-2.672.472-5.597 1.071-7.589 3.048l.045.018Zm0 0c1.983-1.995 4.908-2.594 7.58-3.093a47.893 47.893 0 0 1 8.296-.563c15.278.372 35.527 5.09 44.783 18.299 5.896 9.472 9.582 20.123 12.425 30.846.625 2.431 7.671 30.755-.57 22.354a33.125 33.125 0 0 1-3.858-4.99l.597-.353a144.847 144.847 0 0 1 7.508 15.141c.531 1.182.838 2.453.906 3.747-1.005 3.947-9.319-5.706-10.533-6.967l.698-.518c1.956 3.393 11.121 17.936 9.255 20.867-2.255 3.057-20.639-15.088-23.338-17.446l.471-.481a49.385 49.385 0 0 1 6.385 7.884c3.504 6.994-8.758-1.352-10.379-2.423a166.873 166.873 0 0 1-49.393-52.519c-5.379-9.417-9.527-20.912-.833-29.803v.018Z" fill="#455A64"/><path d="M331.042 247.416c.317.526 11.837 19.27 9.057 20.567-2.781 1.298-21.183-16.285-22.514-17.555.905.908 9.282 9.78 6.221 10.052-2.526.236-19.127-9.897-35.564-26.618 7.245 6.805 21.083 15.541 23.329 15.423 2.246-.118.1-6.595 0-6.868.381.291 12.77 10.243 15.659 9.472 2.889-.771-2.255-13.772-2.255-13.772s6.421 6.351 7.888 5.979c1.467-.372-4.347-14.706-4.528-15.115.153.164 5.288 5.68 6.982 5.19 2.717-.79 1.476-12.992 1.476-12.992l.199.427c2.627 11.113 3.333 19.959 1.893 20.657-1.811.835-5.923-5.498-6.412-6.251.679 1.243 9.718 17.619 8.151 19.052-1.567 1.434-9.31-7.312-9.582-7.648Z" fill="#EBEBEB"/><path d="M204.565 38.81c42.249 0 76.499-6.17 76.499-13.78 0-7.612-34.25-13.782-76.499-13.782-42.249 0-76.499 6.17-76.499 13.781 0 7.611 34.25 13.781 76.499 13.781Z" fill="#FFC727"/><path opacity=".1" d="M128.066 25.084c0-1.724 1.748-3.366 4.954-4.89 55.869 9.98 89.613 2.876 112.942-6.704 21.119 2.458 35.102 6.731 35.102 11.594 0 7.603-34.251 13.772-76.499 13.772s-76.499-6.215-76.499-13.772Z" fill="#000"/><path d="M125.369 25.03c.553-5.508 12.933-8.166 17.479-9.409 33.744-7.294 68.837-6.95 103.07-3.43 50.634 5.78 50.788 19.887 0 25.93-34.224 3.483-69.308 3.538-103.061-3.63-4.709-1.333-16.908-3.964-17.488-9.462Zm.091 0c.543 5.37 12.968 8.046 17.451 9.171 13.467 2.93 27.26 4.083 40.998 4.736a408.695 408.695 0 0 0 61.9-1.66c49.982-5.616 50.154-18.852 0-24.74a409.953 409.953 0 0 0-82.53.118 186.676 186.676 0 0 0-20.404 3.193c-4.573 1.17-16.836 3.792-17.406 9.181h-.009Z" fill="#FFC727"/><path d="M286.109 25.03c-.534 6.041-12.733 8.999-17.651 10.469-34.812 8.256-71.309 7.893-106.692 3.9-51.766-6.504-51.911-22.217 0-28.985a348.624 348.624 0 0 1 85.618.154 172.92 172.92 0 0 1 21.074 3.992c5.044 1.515 17.08 4.436 17.651 10.478v-.009Zm-.091 0c-.561-5.916-12.742-8.873-17.623-10.234-13.893-3.32-28.184-4.682-42.402-5.435a383.432 383.432 0 0 0-64.137 1.897c-51.132 6.35-51.295 21.201 0 27.797a383.81 383.81 0 0 0 85.501-.109 174.49 174.49 0 0 0 21.083-3.674c4.981-1.379 17.053-4.337 17.624-10.243h-.046Z" fill="#FFC727"/><path d="M123.069 26.127c.453 17.981.453 37.777 0 55.767-.444-17.99-.444-37.786 0-55.767Zm58.24 15.287c.444 17.98.453 37.777 0 55.767-.453-17.99-.444-37.786 0-55.767Zm104.754-15.287c.444 29.567.444 62.735 0 92.302a3205.456 3205.456 0 0 1 0-92.302Zm-155.541 5.97c.434 22.236.444 47.176 0 69.412-.453-22.227-.444-47.176 0-69.412ZM244.658 45.28a622.135 622.135 0 0 1 0 41.115 622.135 622.135 0 0 1 0-41.116Zm-85.328-6.47c.444 16.503.453 34.656 0 51.159-.452-16.503-.443-34.656 0-51.159Zm111.037-4.89c.435 22.237.444 47.176 0 69.413-.452-22.227-.443-47.176 0-69.413Zm-147.3 74.221a154.935 154.935 0 0 1 0-20.712 153.28 153.28 0 0 1 0 20.712ZM258.485 66a155.05 155.05 0 0 1 0-20.72c.467 6.898.467 13.821 0 20.72ZM141.063 77.513a153.41 153.41 0 0 1 0-20.722c.462 6.9.462 13.822 0 20.722Zm89.856-14.063a155.05 155.05 0 0 1 0-20.72c.466 6.899.466 13.822 0 20.72Zm-63.258 1.552a154.932 154.932 0 0 1 0-20.712 154.93 154.93 0 0 1 0 20.712Z" fill="#FFC727"/><path d="M238.944 24.521c2.164-.272 18.846-2.458 10.134-5.334-4.737-1.56-11.991-1.987-16.99-2.55 5.751.318 11.565.436 17.125 2.114 1.16.354 3.958 1.506 2.346 2.976a10.318 10.318 0 0 1-4.066 1.624 57.999 57.999 0 0 1-8.549 1.17Zm-15.84.735c4.011-.317 7.996-.435 12.017-.408-3.978.58-8.009.717-12.017.408Zm-21.827-1.551c2.704.154 5.393.49 8.051 1.007a25.426 25.426 0 0 1-8.051-1.007Zm21.826-7.285c-4.936.181-9.881.381-14.798.853-2.463.218-4.909.517-7.345.907-2.074.426-4.329.69-6.122 1.878a1.073 1.073 0 0 0-.471.762 1.095 1.095 0 0 1 .435-.798c1.739-1.289 4.021-1.679 6.095-2.196 2.436-.48 4.899-.78 7.363-1.025a120.94 120.94 0 0 1 14.843-.408v.027Z" fill="#fff"/><path d="M234.506 22.988c1.377-.2 13.584-1.543 7.145-3.058-3.876-.961-8.105-1.097-12.081-1.542 4.574.19 9.328 0 13.684 1.615 3.623 2.35-7.589 2.976-8.748 2.985Zm-11.402.426a40.038 40.038 0 0 1 8.657-.236 40.671 40.671 0 0 1-8.657.236Zm-15.713-.898c1.95-.116 3.907.08 5.796.58a18.35 18.35 0 0 1-5.796-.58Zm15.713-4.264c-3.514.336-7.046.272-10.551.635-2.771.327-7.181.327-9.726 1.48a.741.741 0 0 0-.417.47.768.768 0 0 1 .381-.534c2.97-1.534 6.475-1.443 9.726-1.86 3.514-.318 7.064-.218 10.587-.19Z" fill="#fff"/><path d="M229.054 20.339c-1.395 8.41-3.324 18.698-4.8 26.364-.226 1.161-.434 2.26-.643 3.284-.208 1.025-.398 2.087-.579 2.976v.227c-.073.399-.154.78-.218 1.134-.063.354-.108.526-.154.771-.045.245-.063.3-.09.444l-.489 2.205-10.315-1.28v-.117c.072-.417.353-1.905.769-4.146 0-.209.082-.426.127-.653l.109-.58c.045-.291.1-.582.163-.908.172-.907.353-1.95.552-3.04 1.377-7.511 3.288-18.217 4.719-27.216 3.722.145 7.344.317 10.849.535Z" fill="#FFC727"/><path opacity=".7" d="M229.054 20.339c-1.395 8.41-3.324 18.698-4.8 26.364-.226 1.161-.434 2.26-.643 3.284-.208 1.025-.398 2.087-.579 2.976v.227c-.073.399-.154.78-.218 1.134-.063.354-.108.526-.154.771-.045.245-.063.3-.09.444l-.489 2.205-10.315-1.28v-.117c.072-.417.353-1.905.769-4.146 0-.209.082-.426.127-.653l.109-.58c.045-.291.1-.582.163-.908.172-.907.353-1.95.552-3.04 1.377-7.511 3.288-18.217 4.719-27.216 3.722.145 7.344.317 10.849.535Z" fill="#fff"/><path d="M223.611 49.996c-.906 4.69-1.54 7.793-1.54 7.793l-10.315-1.288s.471-2.477 1.186-6.35l10.669-.155Zm4.246-6.822a8.305 8.305 0 0 0-3.179 1.815 5.795 5.795 0 0 0-1.041 1.624c-.127.308-.263.617-.371.907-.136.376-.303.74-.498 1.089 0 .081.081.154.126.072a5.5 5.5 0 0 1 .526-.962l.606-.789a14.62 14.62 0 0 1 1.123-1.451 13.812 13.812 0 0 1 2.853-2.05.175.175 0 0 0 .021-.085.175.175 0 0 0-.083-.145.174.174 0 0 0-.083-.025Z" fill="#FFC727"/><path d="M226.763 40.742a7.381 7.381 0 0 0-2.201 1.969c-.291.388-.557.794-.797 1.216-.221.438-.414.89-.579 1.351 0 .073.099.118.135.046.231-.42.485-.825.761-1.216.275-.396.578-.771.906-1.125.623-.71 1.292-1.38 2.001-2.005.091-.118-.09-.317-.226-.236Z" fill="#fff"/><path d="M212.787 34.819a.245.245 0 0 0-.226.408c1.902 1.56 3.496 3.629 3.622 6.142 0 .09.127.082.136 0 .272-2.604-.969-5.588-3.532-6.55Z" fill="#FFC727"/><path d="M219.654 34.21a4.372 4.372 0 0 0-1.214-2.476c-.118-.109-.344 0-.281.172.29.817.662 1.606.906 2.45.117.419.199.847.245 1.28 0 .217 0 .444.045.661-.014.2-.014.4 0 .6 0 .063.099.063.127 0 .17-.405.257-.84.253-1.28.027-.47 0-.942-.081-1.406Z" fill="#fff"/><path d="M228.566 28.041a9.104 9.104 0 0 0-3.206 2.862 9.131 9.131 0 0 0-1.54 4.015c0 .09.145.127.172.045a18.315 18.315 0 0 1 1.929-3.629 17.977 17.977 0 0 1 2.808-3.057c.127-.136-.018-.309-.163-.236Z" fill="#FFC727"/><path d="M225.821 26.408a4.687 4.687 0 0 0-1.458 1.87 6.886 6.886 0 0 0-.39 1.097c-.116.389-.18.792-.19 1.198 0 .1.136.1.163 0 .118-.354.199-.717.326-1.07.142-.363.309-.714.498-1.053a21.83 21.83 0 0 1 1.223-1.86.138.138 0 0 0-.026-.148.136.136 0 0 0-.146-.034Z" fill="#fff"/><path d="M219.906 26.426a6.924 6.924 0 0 0-.462-1.868 6.35 6.35 0 0 0-2.418-2.913c-.127-.081-.263.11-.154.209a9.662 9.662 0 0 1 2.001 2.722c.247.496.444 1.016.589 1.551.081.298.145.601.19.907 0 .236.154.69 0 .908a.063.063 0 0 0-.015.024.069.069 0 0 0-.004.029c.001.02.009.038.024.05a.07.07 0 0 0 .053.02c.019 0 .037-.01.051-.024a.82.82 0 0 0 .19-.617 6.4 6.4 0 0 0-.045-.998Z" fill="#FFC727"/><path d="M218.675 46.367a2.725 2.725 0 0 0-.743-1.687c-.136-.127-.399 0-.317.19.241.5.447 1.015.616 1.543.139.548.169 1.118.09 1.678 0 .073.1.136.127.055a3.634 3.634 0 0 0 .227-1.779Z" fill="#fff"/><path d="M214.057 45.95a5.379 5.379 0 0 0-1.648-1.697c-.145-.1-.263.11-.172.218a17.109 17.109 0 0 1 2.345 3.747.081.081 0 0 0 .154 0 5.345 5.345 0 0 0-.679-2.268Zm17.995 38.693c-1.059 2.169 1.531 10.751-.579 12.838-5.842 5.752-17.551 5.752-24.009 4.536-6.457-1.216-17.361-5.444-20.72-12.965-1.214-2.721 4.301-9.761 4.111-12.175-.19-2.413-5.714-4.073-4.039-12.374 1.675-8.301 10.686-12.293 15.867-12.62a61.226 61.226 0 0 1 27.395 5.153c4.709 2.187 11.665 9.19 10.216 17.528-1.449 8.338-7.191 7.902-8.242 10.08Z" fill="#FFC727"/><path opacity=".7" d="M232.052 84.643c-1.059 2.169 1.531 10.751-.579 12.838-5.842 5.752-17.551 5.752-24.009 4.536-6.457-1.216-17.361-5.444-20.72-12.965-1.214-2.721 4.301-9.761 4.111-12.175-.19-2.413-5.714-4.073-4.039-12.374 1.675-8.301 10.686-12.293 15.867-12.62a61.226 61.226 0 0 1 27.395 5.153c4.709 2.187 11.665 9.19 10.216 17.528-1.449 8.338-7.191 7.902-8.242 10.08Z" fill="#fff"/><path d="m230.747 78.357-37.964-7.15c.48-1.414 12.616-7.547 20.775-6.005 8.16 1.542 17.253 11.658 17.189 13.155Z" fill="#FFC727"/><path opacity=".1" d="m230.747 78.356-37.964-7.149a4.03 4.03 0 0 1 1.513-1.243 20.48 20.48 0 0 1 6.891-.562c4.411.635 7.599 3.112 10.931 3.747 3.333.635 7.246-.526 11.538.48a20.473 20.473 0 0 1 6.222 3.03 3.95 3.95 0 0 1 .869 1.697Z" fill="#000"/><path d="M233.41 79.99c-.163.244-3.867-1.706-7.082-1.606-4.655.154-9.401 5.352-16.012 4.11-6.611-1.244-9.137-7.812-13.43-9.645-2.953-1.27-7.118-.798-7.173-1.08-.054-.28 6.847-2.05 11.248-1.387 4.402.662 7.553 3.356 10.868 3.982 3.314.626 7.245-.734 11.583.245 4.338.98 10.143 5.135 9.998 5.38Z" fill="#FFC727"/><path opacity=".1" d="M207.474 79.908c-1.558.245-3.333-3.148-1.585-3.53 1.748-.38 2.4 3.403 1.585 3.53Zm6.437 1.216c1.359.789 4.248-1.733 2.717-2.722-1.53-.989-3.432 2.304-2.717 2.722Z" fill="#000"/><path d="M225.023 86.467c0 .072.154 0 .163-.127.345-1.815 1.033-3.738 2.717-3.956.055 0 .073-.1 0-.109-1.911-.163-2.816 2.459-2.88 4.192Z" fill="#263238"/><path d="M227.087 89.615c4.157.962 5.343-5.57 1.485-6.46-3.858-.889-4.972 5.653-1.485 6.46Z" fill="#263238"/><path d="M228.707 89.597c.679-.272 1.395-.853 2.138-.78.742.073 1.349.907 1.811 1.724 0 .081.108 0 .127-.064.271-1.315 0-2.722-1.35-3.239-1.349-.517-2.4.563-2.988 1.815-.136.245.009.653.262.544Zm-32.002-8.455c0 .063-.127-.109-.109-.182.317-1.814.399-3.855-1.123-4.69-.045 0 0-.109 0-.09 1.947.616 1.821 3.338 1.232 4.962Z" fill="#263238"/><path d="M193.643 83.328c-4.229-.617-2.961-7.14.951-6.568 3.912.571 2.59 7.076-.951 6.568Z" fill="#263238"/><path d="M192.121 82.711c-.535-.508-.996-1.306-1.712-1.506-.715-.2-1.594.372-2.264.962-.072.064-.118 0-.109-.1.227-1.324.978-2.594 2.436-2.531 1.323.054 2.038 1.397 2.12 2.794.018.254-.263.58-.471.381Z" fill="#263238"/><path d="M207.155 93.434a31.851 31.851 0 0 1-3.043 6.605 29.592 29.592 0 0 1-4.383 5.788c-.063.054 0 .127.081.082a22.127 22.127 0 0 0 4.909-5.525 21.193 21.193 0 0 0 2.572-6.913.072.072 0 0 0 .003-.064.073.073 0 0 0-.048-.042.07.07 0 0 0-.062.013.07.07 0 0 0-.021.025.07.07 0 0 0-.008.031Zm1.552 3.321c-.815 6.106-3.822 11.876-7.517 16.72a.11.11 0 0 0 .02.134.114.114 0 0 0 .065.029.106.106 0 0 0 .069-.018c4.728-4.4 6.983-10.514 7.499-16.865.009-.054-.127-.073-.136 0Z" fill="#FFC727"/><path d="M207.172 98.37a19.402 19.402 0 0 1-1.567 3.556 24.103 24.103 0 0 1-2.146 3.239s0 .1.063.064a12.567 12.567 0 0 0 2.409-3.121 14.657 14.657 0 0 0 1.377-3.702.073.073 0 0 0-.054-.071.073.073 0 0 0-.082.035Z" fill="#fff"/><path d="M214.462 104.684a19.066 19.066 0 0 1-3.505-6.977c0-.063-.136 0-.126 0a10.32 10.32 0 0 0 1.059 3.838 12.051 12.051 0 0 0 2.463 3.221c.073.099.172-.009.109-.082Z" fill="#FFC727"/><path d="M216.03 97.536c-.399-.908-.779-1.715-1.105-2.613a10.72 10.72 0 0 1-.706-2.722.091.091 0 0 0-.182 0 5.797 5.797 0 0 0 .218 2.912 7.482 7.482 0 0 0 1.576 2.55c.081.045.199 0 .199-.127Zm-11.457-10.243c-.145.235-.344.444-.489.689a11.84 11.84 0 0 1-.489.753l-.987 1.433-.969 1.37c-.335.481-.707.908-1.024 1.434-.054.081.064.19.145.136a10.772 10.772 0 0 0 2.382-2.586c.337-.493.639-1.008.906-1.542.136-.263.262-.535.389-.808.127-.272.172-.553.272-.834.027-.073-.1-.109-.136-.045Z" fill="#fff"/><path d="M201.541 95.104a7.376 7.376 0 0 1-.688.599 7.959 7.959 0 0 1-.743.59c-.483.355-.988.68-1.512.97a19.39 19.39 0 0 1-3.315 1.488c-.1 0-.082.19 0 .181a8.138 8.138 0 0 0 3.541-1.133 9.973 9.973 0 0 0 1.494-1.116c.227-.218.453-.445.67-.672.218-.227.39-.553.607-.807a.087.087 0 0 0 .006-.032.084.084 0 0 0-.009-.031.068.068 0 0 0-.021-.025.072.072 0 0 0-.03-.012Zm32.537 3.511a6.7 6.7 0 0 0-.905-.69c-.344-.244-.67-.516-.996-.78a20.437 20.437 0 0 1-1.812-1.732 18.524 18.524 0 0 1-1.566-1.924 19.523 19.523 0 0 1-1.268-2.177c0-.082-.172 0-.145.073a10.997 10.997 0 0 0 2.427 4.536 10.7 10.7 0 0 0 1.893 1.678 6.214 6.214 0 0 0 2.309 1.152c.063-.009.127-.09.063-.136Z" fill="#FFC727"/><path d="M225.666 95.848a16.018 16.018 0 0 1-2.717-6.406c0-.163-.29-.108-.281.046a9.862 9.862 0 0 0 2.88 6.45c.063.073.163-.009.118-.09Z" fill="#fff"/><path d="M229.733 101.78a33.033 33.033 0 0 1-3.269-2.721 28.263 28.263 0 0 1-2.771-3.212.158.158 0 0 0-.218-.045.154.154 0 0 0-.067.1.154.154 0 0 0 .022.117 11.984 11.984 0 0 0 2.644 3.53 11.693 11.693 0 0 0 3.623 2.404.09.09 0 0 0 .104-.068.093.093 0 0 0-.012-.067.092.092 0 0 0-.056-.038Zm-34.794-16.728a16.44 16.44 0 0 1-9.962 3.855c-.109 0-.136.191 0 .21 3.731.57 7.915-.754 10.152-3.93.018-.08-.109-.226-.19-.135Z" fill="#FFC727"/><path d="M198.154 83.527a12.278 12.278 0 0 1-1.44 2.34 16.04 16.04 0 0 1-1.811 2.033.117.117 0 0 0 .065.194.115.115 0 0 0 .079-.012 6.947 6.947 0 0 0 2.074-1.915 7.852 7.852 0 0 0 1.15-2.576c.028-.091-.09-.136-.117-.064Z" fill="#fff"/><path d="M194.812 89.397a12.708 12.708 0 0 1-3.07 2.568 14.569 14.569 0 0 1-3.623 1.65v.083a9.368 9.368 0 0 0 3.867-1.361 10.538 10.538 0 0 0 2.934-2.84c.046-.082-.063-.163-.108-.1Z" fill="#FFC727"/><path d="M221.201 96.89a18.033 18.033 0 0 1-1.014-2.322.08.08 0 0 0-.027-.034.072.072 0 0 0-.109.034 9.4 9.4 0 0 0 .77 2.468 8.38 8.38 0 0 0 1.485 2.087c0 .054.136 0 .099-.082a17.463 17.463 0 0 1-1.204-2.15Z" fill="#fff"/><path d="M217.625 93.207a20.381 20.381 0 0 1-2.898-7.049c0-.072-.118 0-.118 0a8.419 8.419 0 0 0 .662 3.892 9.857 9.857 0 0 0 2.246 3.22c.063.074.154 0 .108-.063Zm24.532-19.423a39.012 39.012 0 0 1-3.179 3.057 19.857 19.857 0 0 1-3.704 2.45c-.09 0 0 .2.082.163a11.905 11.905 0 0 0 6.937-5.588c0-.073-.082-.145-.136-.082Zm-50.208.154c-.552-.154-1.132-.245-1.703-.39a27.63 27.63 0 0 1-1.693-.481 19.88 19.88 0 0 1-1.694-.608c-.552-.236-1.068-.499-1.612-.726-.099 0-.208.073-.117.155a8.398 8.398 0 0 0 3.206 1.814 7.449 7.449 0 0 0 3.622.372c.073 0 .054-.118-.009-.136Zm-3.088-3.003a14.814 14.814 0 0 1-2.237-2.032 15.297 15.297 0 0 1-1.694-2.513c-.054-.1-.181 0-.163.073a6.051 6.051 0 0 0 4.03 4.59.075.075 0 0 0 .042-.008.07.07 0 0 0 .029-.03.074.074 0 0 0 .009-.04.078.078 0 0 0-.016-.04Zm51.794-4.49a.075.075 0 0 0-.021-.052.074.074 0 0 0-.103 0 .07.07 0 0 0-.021.052 12.586 12.586 0 0 1-.507 4.019 9.363 9.363 0 0 1-1.947 3.629.076.076 0 0 0-.011.046.08.08 0 0 0 .021.043.072.072 0 0 0 .089.01 10.36 10.36 0 0 0 1.422-1.57c.405-.6.725-1.253.951-1.94a7.276 7.276 0 0 0 .127-4.237ZM201.54 52.954a4.034 4.034 0 0 0-.905-.698 4.142 4.142 0 0 0-1.069-.408c-.227-.055-.38.29-.154.39.314.15.616.323.906.517.28.19.561.363.824.58.517.453.957.986 1.304 1.579 0 .073.145 0 .127-.054a4.544 4.544 0 0 0-1.033-1.906Zm-11.774 3.211a.13.13 0 0 0-.015-.094.134.134 0 0 0-.168-.06.134.134 0 0 0-.071.064 6.486 6.486 0 0 0-.797 3.356 7.635 7.635 0 0 0 .906 3.303.07.07 0 0 0 .038.023.074.074 0 0 0 .079-.034.075.075 0 0 0 .01-.044 11.878 11.878 0 0 1 .018-6.514Z" fill="#FFC727"/><path d="M191.351 61.373a.252.252 0 0 0-.088-.148.251.251 0 0 0-.323 0 .256.256 0 0 0-.087.148 5.835 5.835 0 0 0 1.811 4.418c.054.054.145 0 .109-.09a10.96 10.96 0 0 1-1.422-4.328Z" fill="#fff"/><path d="M211.602 57.29a.173.173 0 0 0-.226-.09.173.173 0 0 0-.091.227c.276 1 .5 2.015.671 3.039a12.95 12.95 0 0 1 0 3.184c0 .064.09.127.126.046a6.853 6.853 0 0 0-.48-6.405Z" fill="#FFC727"/><path d="M216.304 55.367a7.77 7.77 0 0 0-1.549 2.658c-.327.994-.507 2.03-.534 3.076 0 .081.117.09.136 0a14.46 14.46 0 0 1 .86-2.894c.371-.908.752-1.86 1.195-2.722.082-.1-.036-.2-.108-.118Z" fill="#fff"/><path d="M217.597 59.295a9.747 9.747 0 0 0-1.476 2.985c0 .082.1.127.127.054.457-.992.99-1.947 1.594-2.857.072-.145-.136-.309-.245-.182Zm9.248-4.99a7.242 7.242 0 0 0-3.261 1.47 7.752 7.752 0 0 0-2.119 2.876.08.08 0 0 0 .004.048.074.074 0 0 0 .082.041.071.071 0 0 0 .041-.025 10.359 10.359 0 0 1 2.346-2.523 11.2 11.2 0 0 1 2.961-1.732.081.081 0 0 0 .046-.042.08.08 0 0 0-.038-.11.08.08 0 0 0-.062-.003Z" fill="#FFC727"/><path d="M237.767 70.645c-.354.608-.752 1.18-1.141 1.76a8.47 8.47 0 0 1-1.368 1.588c-.054.054 0 .154.091.109.57-.43 1.1-.91 1.584-1.434.48-.533.86-1.147 1.123-1.814.109-.236-.154-.408-.289-.209Z" fill="#fff"/><path d="M238.272 63.768c-.055-.218-.362-.145-.372.063v1.08a8.52 8.52 0 0 1-.135 1.08 6.657 6.657 0 0 1-.761 2.05c0 .063.063.145.118.082a6.413 6.413 0 0 0 1.023-2.033 4.6 4.6 0 0 0 .127-2.322Z" fill="#FFC727"/><path d="M230.594 66.898a17.557 17.557 0 0 1-1.993 3.756.074.074 0 0 0 .005.105.074.074 0 0 0 .104-.004 7.26 7.26 0 0 0 2.165-3.739c.027-.2-.209-.29-.281-.118Z" fill="#fff"/><path d="M229.543 62.28c-.199.771-.389 1.542-.625 2.296-.239.77-.542 1.52-.905 2.24a.078.078 0 0 0 .001.059.081.081 0 0 0 .144.014 9.367 9.367 0 0 0 1.811-4.536c.036-.263-.353-.29-.426-.073Z" fill="#FFC727"/><path d="M226.655 59.132a5.696 5.696 0 0 0-1.685 1.815 8.19 8.19 0 0 0-.978 2.24.073.073 0 0 0 .1.028.067.067 0 0 0 .027-.027c.354-.708.766-1.384 1.232-2.024.471-.635 1.005-1.224 1.494-1.814.109-.109-.036-.318-.19-.218Z" fill="#fff"/><path d="M202.826 58.434a5.44 5.44 0 0 0-2.038-2.722c-.081 0-.19.054-.126.136.335.426.597.907.905 1.37.308.463.58.907.833 1.433.501.985.861 2.036 1.069 3.121 0 .073.136.055.136 0a10.436 10.436 0 0 0-.779-3.338Z" fill="#FFC727"/><path d="M198.334 57.745c-.17-.34-.357-.67-.562-.99a4.645 4.645 0 0 0-1.512-1.596.135.135 0 0 0-.164.025.134.134 0 0 0-.017.165 13.71 13.71 0 0 0 1.277 1.633c.208.264.416.527.615.808l.299.444c.115.152.207.32.272.5 0 .019.008.037.021.05a.073.073 0 0 0 .103 0 .075.075 0 0 0 .021-.05 2.838 2.838 0 0 0-.353-.99Zm7.3-4.537a7.915 7.915 0 0 0-2.554-2.531c-.072 0-.144.063-.081.118a12.926 12.926 0 0 1 2.273 2.721 10.335 10.335 0 0 1 1.44 3.23c0 .09.154 0 .136 0a9.265 9.265 0 0 0-1.214-3.538Zm6.557 37.904a15.672 15.672 0 0 1-.906-2.513 15.905 15.905 0 0 1-.507-2.604.106.106 0 0 0-.017-.096.108.108 0 0 0-.174 0 .106.106 0 0 0-.017.096 7.204 7.204 0 0 0 .217 2.722 7.406 7.406 0 0 0 1.277 2.44.07.07 0 0 0 .036.023.074.074 0 0 0 .043-.002.078.078 0 0 0 .034-.025.082.082 0 0 0 .014-.04Z" fill="#fff"/><path d="M208.785 87.166a14.982 14.982 0 0 1-3.025 4.146s0 .1.063.072a6.003 6.003 0 0 0 3.043-4.146.071.071 0 0 0-.002-.032.072.072 0 0 0-.018-.027.062.062 0 0 0-.029-.015.062.062 0 0 0-.032.002Z" fill="#FFC727"/><path d="M132.12 354.787a11.11 11.11 0 0 1-3.314 7.908 11.068 11.068 0 0 1-7.952 3.179h-2.011v15.314a11.09 11.09 0 0 1-6.754 10.529 11.05 11.05 0 0 1-12.245-2.486 11.09 11.09 0 0 1-3.125-8.043v-15.314H33.324a9.885 9.885 0 0 1-6.846-2.422 10.779 10.779 0 0 1-4.227-7.368 10.8 10.8 0 0 1 2.415-8.146l74.462-92.701c.199 0 .199-.2.407-.399a2.81 2.81 0 0 0 .598-.808 2.044 2.044 0 0 0 1.005-.607c.199-.2.607-.4.806-.599a2.127 2.127 0 0 1 1.205-.408c.208-.4.407-.599.806-.599.199-.209.606-.209 1.213-.408.281.029.563-.041.797-.2h3.423c.309.162.658.231 1.006.2.199.199.806.199 1.204.408.208 0 .607.199.806.199.408.4.806.599 1.005.808.408.199.607.399 1.006.599a.208.208 0 0 1 .208.208c.199 0 .598.2.598.399.407.4.606.608.806.808.199.199.398.599.606.807.307.304.577.642.806 1.007.052.303.19.583.399.808.164.391.297.794.398 1.206 0 .2.2.599.2.808.187.372.26.792.208 1.206 0 .4.199.608.199 1.007v81.987h2.011a11.193 11.193 0 0 1 7.924 3.226 11.235 11.235 0 0 1 3.342 7.887ZM96.719 293.93 56.68 343.674h40.038V293.93Zm279.08 60.857a11.114 11.114 0 0 1-3.308 7.902 11.092 11.092 0 0 1-3.651 2.391 11.05 11.05 0 0 1-4.289.794h-2.011v15.314a11.09 11.09 0 0 1-6.754 10.529 11.05 11.05 0 0 1-12.244-2.486 11.084 11.084 0 0 1-3.126-8.043v-15.314h-63.394a9.864 9.864 0 0 1-6.847-2.422 10.787 10.787 0 0 1-1.811-15.514l74.452-92.701c.199 0 .199-.2.398-.399a2.66 2.66 0 0 0 .607-.808 2.04 2.04 0 0 0 1.005-.607c.2-.2.607-.4.806-.599a2.127 2.127 0 0 1 1.205-.408c.199-.4.407-.599.806-.599.199-.209.607-.209 1.204-.408.284.03.569-.041.806-.2h3.424c.309.162.658.231 1.005.2.199.199.806.199 1.204.408.209 0 .607.199.806.199.408.4.806.599 1.006.808.398.199.606.399 1.005.599a.199.199 0 0 1 .199.208c.208 0 .607.2.607.399l.806.808c.199.199.398.599.607.807.306.304.577.642.806 1.007.051.303.189.583.398.808.164.391.297.794.399 1.206 0 .2.199.599.199.808.18.375.249.793.199 1.206 0 .4.208.608.208 1.007v81.987h2.02a11.193 11.193 0 0 1 7.912 3.232 11.234 11.234 0 0 1 3.336 7.881Zm-35.401-60.857-40.038 49.744h40.038V293.93Z" fill="#455A64"/><path d="M120.854 120.588a27.91 27.91 0 0 1 5.629-14.133 27.832 27.832 0 0 1 12.199-9.067 27.78 27.78 0 0 1 15.133-1.3 27.807 27.807 0 0 1 13.561 6.854l13.929-2.05-6.973 12.066a27.616 27.616 0 0 1 1.911 13.427 27.933 27.933 0 0 1-3.107 10.539 27.875 27.875 0 0 1-16.604 13.697 27.815 27.815 0 0 1-29.791-9.309 27.92 27.92 0 0 1-5.887-20.724Z" fill="#fff"/><path d="M120.854 120.588a28.098 28.098 0 0 1 5.624-14.144 24.617 24.617 0 0 1 5.434-5.444 27.238 27.238 0 0 1 6.711-3.746 27.684 27.684 0 0 1 7.498-1.815 28.934 28.934 0 0 1 3.867-.072 24.96 24.96 0 0 1 3.858.399 28.182 28.182 0 0 1 13.775 6.813l-.326-.1 13.938-2.096 1.014-.154-.516.907-6.928 12.094v-.481a28.287 28.287 0 0 1 1.607 15.739 28.253 28.253 0 0 1-7.098 14.134 28.178 28.178 0 0 1-13.572 8.09 28.139 28.139 0 0 1-15.786-.494 28.606 28.606 0 0 1-10.741-6.596 28.14 28.14 0 0 1-6.816-10.557 28.181 28.181 0 0 1-1.543-12.477Zm0 0c-.444 4.2.081 8.447 1.533 12.412a27.606 27.606 0 0 0 6.846 10.461 27.534 27.534 0 0 0 23.201 7.31 27.363 27.363 0 0 0 11.501-4.536 28.653 28.653 0 0 0 8.323-9.072 27.649 27.649 0 0 0 3.541-11.794 27.992 27.992 0 0 0-1.965-12.148l-.1-.254.136-.227 7.01-12.039.498.735-13.947 1.959h-.19l-.136-.136a27.437 27.437 0 0 0-13.331-6.876 24.129 24.129 0 0 0-3.776-.463 28.143 28.143 0 0 0-3.813 0 27.48 27.48 0 0 0-7.435 1.642 25.761 25.761 0 0 0-6.72 3.629 30.215 30.215 0 0 0-2.934 2.459 29.337 29.337 0 0 0-2.536 2.875 28.063 28.063 0 0 0-5.706 14.063Z" fill="#263238"/><path d="M150.434 127.763v3.403a2.522 2.522 0 0 1-.731 1.838 2.512 2.512 0 0 1-1.832.738 2.57 2.57 0 0 1-2.563-2.576v-5.444s.045 0 .045-.1c0-.099-.045-.054-.045-.108a2.641 2.641 0 0 1 2.563-2.568 5.851 5.851 0 0 0 4.143-1.719 5.876 5.876 0 0 0 0-8.301 5.851 5.851 0 0 0-4.143-1.719 5.785 5.785 0 0 0-5.026 2.885 2.604 2.604 0 0 1-1.591 1.194 2.585 2.585 0 0 1-1.968-.287 2.56 2.56 0 0 1-.906-3.52 11.002 11.002 0 0 1 8.9-5.479 11 11 0 0 1 11.511 9.428 11.043 11.043 0 0 1-3.592 9.826 10.983 10.983 0 0 1-4.783 2.482l.018.027Zm0 11.477v.907a2.522 2.522 0 0 1-.731 1.838 2.5 2.5 0 0 1-1.832.739 2.575 2.575 0 0 1-2.563-2.577v-.907a2.598 2.598 0 0 1 2.563-2.568 2.544 2.544 0 0 1 2.375 1.581c.128.313.192.649.188.987Z" fill="#FFC727"/></g><defs><clipPath id="a"><path fill="#fff" transform="translate(.43 .5)" d="M0 0h427v405H0z"/></clipPath></defs></svg>