<svg width="21" height="21" viewBox="0 0 21 21" fill="none" xmlns="http://www.w3.org/2000/svg">
  <g clip-path="url(#clip0_726_292)">
    <path fill-rule="evenodd" clip-rule="evenodd" d="M6.11032 3.16737C4.98254 4.15271 4.12261 5.90796 4.12261 9.07865C4.12261 13.3783 7.47692 16.6827 9.56968 18.3097C10.1737 18.7793 10.9747 18.7793 11.5787 18.3097C13.6715 16.6827 17.0258 13.3783 17.0258 9.07865C17.0258 5.90796 16.1659 4.15271 15.0381 3.16737C13.8874 2.162 12.3022 1.81852 10.5742 1.81852C8.84622 1.81852 7.26102 2.162 6.11032 3.16737ZM5.10264 1.96904C6.66161 0.606977 8.68932 0.240234 10.5742 0.240234C12.4591 0.240234 14.4868 0.606977 16.0458 1.96904C17.6277 3.35114 18.5742 5.62052 18.5742 9.07865C18.5742 14.1867 14.6514 17.9059 12.5178 19.5646C11.3592 20.4654 9.78925 20.4654 8.63066 19.5646C6.49706 17.9059 2.57422 14.1867 2.57422 9.07865C2.57422 5.62052 3.52074 3.35114 5.10264 1.96904ZM10.5742 5.99023C9.33158 5.99023 8.32422 6.99759 8.32422 8.24023C8.32422 9.48287 9.33158 10.4902 10.5742 10.4902C11.8168 10.4902 12.8242 9.48287 12.8242 8.24023C12.8242 6.99759 11.8168 5.99023 10.5742 5.99023ZM6.82422 8.24023C6.82422 6.16916 8.50315 4.49023 10.5742 4.49023C12.6453 4.49023 14.3242 6.16916 14.3242 8.24023C14.3242 10.3113 12.6453 11.9902 10.5742 11.9902C8.50315 11.9902 6.82422 10.3113 6.82422 8.24023Z" fill="#201F29"/>
  </g>
  <defs>
    <clipPath id="clip0_726_292">
      <rect width="20" height="20" fill="white" transform="translate(0.574219 0.240234)"/>
    </clipPath>
  </defs>
</svg>