<svg width="41" height="42" viewBox="0 0 41 42" fill="none" xmlns="http://www.w3.org/2000/svg">
  <rect x="2.67873" y="3.74805" width="34.875" height="34.875" rx="17.4375" stroke="#E8E8F6"/>
  <path d="M18.0596 27.0329C16.2604 27.0329 14.5832 26.5096 13.1715 25.6066C14.37 25.6842 16.4852 25.4984 17.8009 24.2435C15.8217 24.1527 14.9292 22.6348 14.8127 21.9861C14.9809 22.0509 15.7829 22.1288 16.2357 21.9472C13.959 21.3763 13.6097 19.3783 13.6873 18.7686C14.1142 19.067 14.8386 19.1708 15.1232 19.1448C13.0017 17.6269 13.7649 15.3435 14.1401 14.8505C15.6625 16.9597 17.9442 18.1443 20.7669 18.2102C20.7137 17.9768 20.6856 17.7338 20.6856 17.4842C20.6856 15.6929 22.1334 14.2407 23.9195 14.2407C24.8527 14.2407 25.6936 14.6371 26.2838 15.2712C26.9074 15.1251 27.8459 14.783 28.3047 14.4872C28.0735 15.3175 27.3535 16.0102 26.918 16.2669C26.9144 16.2582 26.9216 16.2757 26.918 16.2669C27.3005 16.2091 28.3356 16.0101 28.7445 15.7327C28.5423 16.1992 27.779 16.9748 27.1526 17.409C27.2691 22.549 23.3365 27.0329 18.0596 27.0329Z" fill="#666680"/>
</svg>